<svg xmlns="http://www.w3.org/2000/svg" xmlns:xlink="http://www.w3.org/1999/xlink" viewBox="0 0 81 81"><defs><style>.cls-1,.cls-10,.cls-2,.cls-3,.cls-4,.cls-5,.cls-6,.cls-7,.cls-8,.cls-9{stroke-miterlimit:10;}.cls-1{fill:url(#linear-gradient);stroke:url(#linear-gradient-2);}.cls-10,.cls-2,.cls-3,.cls-4,.cls-5,.cls-6,.cls-8,.cls-9{opacity:0.15;}.cls-2{fill:url(#linear-gradient-3);stroke:url(#linear-gradient-4);}.cls-3{fill:url(#linear-gradient-5);stroke:url(#linear-gradient-6);}.cls-4{fill:url(#linear-gradient-7);stroke:url(#linear-gradient-8);}.cls-5{fill:url(#linear-gradient-9);stroke:url(#linear-gradient-10);}.cls-6{fill:url(#linear-gradient-11);stroke:url(#linear-gradient-12);}.cls-7{fill:url(#linear-gradient-13);stroke:url(#linear-gradient-14);}.cls-8{fill:url(#linear-gradient-15);stroke:url(#linear-gradient-16);}.cls-9{fill:url(#linear-gradient-17);stroke:url(#linear-gradient-18);}.cls-10{fill:url(#linear-gradient-19);stroke:url(#linear-gradient-20);}</style><linearGradient id="linear-gradient" x1="0.5" y1="40.5" x2="80.5" y2="40.5" gradientUnits="userSpaceOnUse"><stop offset="0.26" stop-color="#bdd7f0"/><stop offset="1" stop-color="#7da6d8"/></linearGradient><linearGradient id="linear-gradient-2" x1="0" y1="40.5" x2="81" y2="40.5" xlink:href="#linear-gradient"/><linearGradient id="linear-gradient-3" x1="19.61" y1="23.5" x2="27.39" y2="23.5" xlink:href="#linear-gradient"/><linearGradient id="linear-gradient-4" x1="19.11" y1="23.5" x2="27.89" y2="23.5" xlink:href="#linear-gradient"/><linearGradient id="linear-gradient-5" x1="20.04" y1="73.65" x2="26.95" y2="73.65" xlink:href="#linear-gradient"/><linearGradient id="linear-gradient-6" x1="19.33" y1="73.65" x2="27.66" y2="73.65" xlink:href="#linear-gradient"/><linearGradient id="linear-gradient-7" x1="70.28" y1="23.44" x2="77.15" y2="23.44" xlink:href="#linear-gradient"/><linearGradient id="linear-gradient-8" x1="69.57" y1="23.44" x2="77.86" y2="23.44" xlink:href="#linear-gradient"/><linearGradient id="linear-gradient-9" x1="41.39" y1="4.33" x2="43.97" y2="4.33" xlink:href="#linear-gradient"/><linearGradient id="linear-gradient-10" x1="40.89" y1="4.33" x2="44.47" y2="4.33" xlink:href="#linear-gradient"/><linearGradient id="linear-gradient-11" x1="3.13" y1="42.65" x2="5.65" y2="42.65" xlink:href="#linear-gradient"/><linearGradient id="linear-gradient-12" x1="2.63" y1="42.65" x2="6.15" y2="42.65" xlink:href="#linear-gradient"/><linearGradient id="linear-gradient-13" x1="27.32" y1="53.84" x2="80.5" y2="53.84" xlink:href="#linear-gradient"/><linearGradient id="linear-gradient-14" x1="26.82" y1="53.81" x2="81" y2="53.81" xlink:href="#linear-gradient"/><linearGradient id="linear-gradient-15" x1="30.13" y1="49.55" x2="68.98" y2="49.55" xlink:href="#linear-gradient"/><linearGradient id="linear-gradient-16" x1="29.63" y1="49.55" x2="69.48" y2="49.55" xlink:href="#linear-gradient"/><linearGradient id="linear-gradient-17" x1="57.07" y1="66.98" x2="76.87" y2="66.98" xlink:href="#linear-gradient"/><linearGradient id="linear-gradient-18" x1="56.46" y1="67.1" x2="77.71" y2="67.1" xlink:href="#linear-gradient"/><linearGradient id="linear-gradient-19" x1="47.96" y1="52.81" x2="57.63" y2="52.81" xlink:href="#linear-gradient"/><linearGradient id="linear-gradient-20" x1="47.46" y1="52.81" x2="58.13" y2="52.81" xlink:href="#linear-gradient"/></defs><title>aaa</title><g id="Layer_2" data-name="Layer 2"><g id="Layer_1-2" data-name="Layer 1"><path class="cls-1" d="M80,22.47q-2.58-2.61-5.19-5.19a1.28,1.28,0,0,0-2.1,0c-.64.65-1.25,1.32-1.83,1.94-11.5-8-23.66-9.5-36.67-4.53,2.23-2.26,4.4-4.47,6.61-6.65.15-.14.56-.11.82-.05A3.84,3.84,0,0,0,44.15.77C44,.69,43.78.59,43.61.5H41.73c-.18.09-.36.19-.54.27A3.78,3.78,0,0,0,39,5.39a1,1,0,0,1-.3,1.13L27.56,17.67c-.16.16-.33.3-.49.44a6.45,6.45,0,0,0-7.91.66c-2.29,2.14-2.61,4.65-1.08,8.31C14.14,31,10.23,35,6.28,38.9a1,1,0,0,1-.8.1,3.87,3.87,0,0,0-4.19,1.33,12,12,0,0,0-.79,1.4v1.88a2.13,2.13,0,0,1,.16.25,3.83,3.83,0,0,0,4.87,2.47A3.91,3.91,0,0,0,8,41.42a1,1,0,0,1,.25-.83c1.91-2,3.86-3.87,5.79-5.81a4,4,0,0,0,.41-.73l.24.23c-4.92,12.94-3.45,25.09,4.56,36.58-.63.59-1.31,1.2-2,1.84a1.28,1.28,0,0,0,0,2.09Q19.88,77.4,22.47,80a1.25,1.25,0,0,0,2,0q2.61-2.58,5.19-5.19a1.28,1.28,0,0,0,.05-2q-2.59-2.65-5.22-5.27a1.3,1.3,0,0,0-2.05,0c-.47.46-.9,1-1.36,1.48-9.51-12.82-8.2-29.51-.65-39.76,2.73,1.16,5.32,1,7.5-1.14s2.44-4.81,1.25-7.6A34.11,34.11,0,0,1,69,21.12c-.49.45-1,.87-1.43,1.32a1.31,1.31,0,0,0,0,2.1q2.61,2.63,5.27,5.22a1.26,1.26,0,0,0,2,0C76.49,28,78.24,26.27,80,24.51A1.26,1.26,0,0,0,80,22.47ZM42.65,3a1.33,1.33,0,0,1,.05,2.65,1.29,1.29,0,0,1-1.31-1.34A1.3,1.3,0,0,1,42.65,3ZM4.37,43.91a1.31,1.31,0,0,1-1.24-1.35,1.13,1.13,0,0,1,1.26-1.17,1.29,1.29,0,0,1,1.26,1.32A1.25,1.25,0,0,1,4.37,43.91ZM23.48,70.18c1.17,1.16,2.35,2.35,3.47,3.47l-3.47,3.46L20,73.64Zm0-42.79a3.87,3.87,0,0,1-3.91-3.91,3.89,3.89,0,1,1,7.78.06A3.83,3.83,0,0,1,23.52,27.39Zm50.69-.92c-.14.14-.29.28-.42.42h0l-3.51-3.52c1.08-1.1,2.26-2.27,3.36-3.37l3.51,3.52Z"/><path class="cls-2" d="M27.39,23.54a3.83,3.83,0,0,1-3.87,3.85,3.87,3.87,0,0,1-3.91-3.91,3.89,3.89,0,1,1,7.78.06Z"/><path class="cls-3" d="M27,73.65l-3.47,3.46L20,73.64l3.44-3.46C24.65,71.34,25.83,72.53,27,73.65Z"/><path class="cls-4" d="M77.15,23.52l-2.94,2.95c-.14.14-.29.28-.42.42l-3.51-3.52c1.08-1.1,2.26-2.27,3.36-3.37Z"/><path class="cls-5" d="M44,4.35a1.3,1.3,0,0,1-1.27,1.3,1.29,1.29,0,0,1-1.31-1.34A1.3,1.3,0,0,1,42.65,3,1.31,1.31,0,0,1,44,4.35Z"/><path class="cls-6" d="M5.65,42.71a1.25,1.25,0,0,1-1.28,1.2,1.31,1.31,0,0,1-1.24-1.35,1.13,1.13,0,0,1,1.26-1.17A1.29,1.29,0,0,1,5.65,42.71Z"/><path class="cls-7" d="M79.4,58.48c-2.41-1.21-4.83-2.4-7.23-3.63a1.78,1.78,0,0,1-.78-.87q-2.46-6.24-4.82-12.5a2.2,2.2,0,0,0-1.35-1.38L33.62,27.49c-.26-.11-.54-.19-.91-.31a6.65,6.65,0,0,0-1,.66c-1.25,1.22-2.45,2.49-3.72,3.68a1.8,1.8,0,0,0-.49,2.28q6.31,15.68,12.55,31.38a2.28,2.28,0,0,0,1.44,1.4q6.23,2.36,12.42,4.78a1.91,1.91,0,0,1,.91.84c1.23,2.38,2.41,4.78,3.61,7.17.68,1.35,1.48,1.49,2.54.43L79.83,61C80.84,60,80.7,59.13,79.4,58.48ZM54.53,68.88c-3.82-1.5-7.66-2.95-11.47-4.46a1.66,1.66,0,0,1-.86-.85c-4-9.9-7.94-19.81-11.93-29.71-.25-.64-.19-1,.34-1.28L46.68,48.65a7.38,7.38,0,0,0-.88,6.43,7.17,7.17,0,0,0,3.12,4,7.37,7.37,0,1,0-.24-12.4q-8-8-16.08-16.08a.76.76,0,0,1,.12-.2c.23-.31.59-.32,1.13-.11q14.81,6,29.65,11.87a1.56,1.56,0,0,1,1,1q2.16,5.72,4.39,11.41a.92.92,0,0,1-.23,1.15q-6.53,6.46-13,13A.9.9,0,0,1,54.53,68.88ZM48,52.79a4.84,4.84,0,0,1,7.35-4.12l.38.26h0c.19.15.36.3.53.46s.31.34.45.52a4.84,4.84,0,0,1,1,2.88,4.84,4.84,0,1,1-9.67,0ZM72.68,64.26,60.05,76.88c-1-1.93-2-4-3-6L70.91,57.08l6,3h0Z"/><path class="cls-8" d="M68.65,55.67q-6.53,6.46-13,13a.9.9,0,0,1-1.14.23c-3.82-1.5-7.66-2.95-11.47-4.46a1.66,1.66,0,0,1-.86-.85c-4-9.9-7.94-19.81-11.93-29.71-.25-.64-.19-1,.34-1.28L46.68,48.65a7.38,7.38,0,0,0-.88,6.43,7.17,7.17,0,0,0,3.12,4,7.37,7.37,0,1,0-.24-12.4q-8-8-16.08-16.08a1.17,1.17,0,0,1,.12-.2c.23-.31.59-.32,1.13-.11q14.81,6,29.65,11.87a1.56,1.56,0,0,1,1,1q2.16,5.72,4.39,11.41A.92.92,0,0,1,68.65,55.67Z"/><path class="cls-9" d="M76.87,60.06l-4.19,4.2L60.05,76.88c-1-1.93-2-4-3-6L70.91,57.08Z"/><path class="cls-10" d="M57.63,52.79a4.84,4.84,0,1,1-9.67,0,4.84,4.84,0,0,1,7.35-4.12l.38.26h0c.19.15.36.3.53.46a5.59,5.59,0,0,1,.45.52A4.84,4.84,0,0,1,57.63,52.79Z"/></g></g></svg>