<svg xmlns="http://www.w3.org/2000/svg" xmlns:xlink="http://www.w3.org/1999/xlink" viewBox="0 0 81 81"><defs><style>.cls-1{fill:url(#linear-gradient);stroke:url(#linear-gradient-2);}.cls-2{fill:url(#linear-gradient-3);stroke:url(#linear-gradient-4);}.cls-3{fill:url(#linear-gradient-5);stroke:url(#linear-gradient-6);}.cls-4{fill:url(#linear-gradient-7);stroke:url(#linear-gradient-8);}.cls-5{fill:url(#linear-gradient-9);stroke:url(#linear-gradient-10);}.cls-6{fill:url(#linear-gradient-11);stroke:url(#linear-gradient-12);}.cls-11,.cls-7,.cls-8,.cls-9{opacity:0.15;}.cls-7{fill:url(#linear-gradient-13);stroke:url(#linear-gradient-14);}.cls-8{fill:url(#linear-gradient-15);stroke:url(#linear-gradient-16);}.cls-9{fill:url(#linear-gradient-17);stroke:url(#linear-gradient-18);}.cls-10{fill:url(#linear-gradient-19);stroke:url(#linear-gradient-20);}.cls-11{fill:url(#linear-gradient-21);stroke:url(#linear-gradient-22);}</style><linearGradient id="linear-gradient" x1="27.15" y1="53.82" x2="80.49" y2="53.82" gradientUnits="userSpaceOnUse"><stop offset="0.26" stop-color="#fedab6"/><stop offset="1" stop-color="#f79b8c"/></linearGradient><linearGradient id="linear-gradient-2" x1="26.65" y1="53.82" x2="80.99" y2="53.82" xlink:href="#linear-gradient"/><linearGradient id="linear-gradient-3" x1="0.5" y1="10.5" x2="80.5" y2="10.5" xlink:href="#linear-gradient"/><linearGradient id="linear-gradient-4" x1="0" y1="10.5" x2="81" y2="10.5" xlink:href="#linear-gradient"/><linearGradient id="linear-gradient-5" x1="0.5" y1="37.16" x2="20.5" y2="37.16" xlink:href="#linear-gradient"/><linearGradient id="linear-gradient-6" x1="0" y1="37.16" x2="21" y2="37.16" xlink:href="#linear-gradient"/><linearGradient id="linear-gradient-7" x1="0.5" y1="55.5" x2="20.49" y2="55.5" xlink:href="#linear-gradient"/><linearGradient id="linear-gradient-8" x1="0" y1="55.5" x2="20.99" y2="55.5" xlink:href="#linear-gradient"/><linearGradient id="linear-gradient-9" x1="0.5" y1="65.49" x2="20.49" y2="65.49" xlink:href="#linear-gradient"/><linearGradient id="linear-gradient-10" x1="0" y1="65.49" x2="20.99" y2="65.49" xlink:href="#linear-gradient"/><linearGradient id="linear-gradient-11" x1="0.5" y1="75.5" x2="20.49" y2="75.5" xlink:href="#linear-gradient"/><linearGradient id="linear-gradient-12" x1="0" y1="75.5" x2="20.99" y2="75.5" xlink:href="#linear-gradient"/><linearGradient id="linear-gradient-13" x1="30.5" y1="53.82" x2="77.15" y2="53.82" xlink:href="#linear-gradient"/><linearGradient id="linear-gradient-14" x1="30" y1="53.82" x2="77.65" y2="53.82" xlink:href="#linear-gradient"/><linearGradient id="linear-gradient-15" x1="3.84" y1="10.5" x2="77.15" y2="10.5" xlink:href="#linear-gradient"/><linearGradient id="linear-gradient-16" x1="3.34" y1="10.5" x2="77.65" y2="10.5" xlink:href="#linear-gradient"/><linearGradient id="linear-gradient-17" x1="3.86" y1="37.15" x2="17.14" y2="37.15" xlink:href="#linear-gradient"/><linearGradient id="linear-gradient-18" x1="3.36" y1="37.15" x2="17.64" y2="37.15" xlink:href="#linear-gradient"/><linearGradient id="linear-gradient-19" x1="43.8" y1="52.17" x2="67.17" y2="52.17" xlink:href="#linear-gradient"/><linearGradient id="linear-gradient-20" x1="43.3" y1="52.17" x2="67.67" y2="52.17" xlink:href="#linear-gradient"/><linearGradient id="linear-gradient-21" x1="47.24" y1="52.17" x2="61.74" y2="52.17" xlink:href="#linear-gradient"/><linearGradient id="linear-gradient-22" x1="46.74" y1="52.16" x2="62.86" y2="52.16" xlink:href="#linear-gradient"/></defs><title>Asset 11</title><g id="Layer_2" data-name="Layer 2"><g id="Layer_1-2" data-name="Layer 1"><path class="cls-1" d="M75.19,27.16q-21.36,0-42.72,0a5.84,5.84,0,0,0-2.34.45,4.89,4.89,0,0,0-3,4.87V75.13a6.91,6.91,0,0,0,0,.78,4.89,4.89,0,0,0,3.32,4.31c.21.08.41.18.62.28h45.3a.57.57,0,0,1,.13-.1c2.8-.94,3.93-2.49,3.93-5.43V32.49A5,5,0,0,0,75.19,27.16Zm2,47.73c0,1.75-.51,2.26-2.3,2.26H32.9c-1.92,0-2.4-.49-2.4-2.4V32.88c0-1.85.52-2.39,2.34-2.39h42c1.75,0,2.28.54,2.28,2.29Z"/><path class="cls-2" d="M75.53.51q-35,0-70,0A4.93,4.93,0,0,0,.77,3.85c-.08.24-.18.47-.27.71V16.44l.25.63a5,5,0,0,0,4.73,3.42q35,0,70.05,0a4.93,4.93,0,0,0,5-5q0-5,0-10.07A4.93,4.93,0,0,0,75.53.51Zm1.59,15a1.56,1.56,0,0,1-1.63,1.64c-.26,0-.51,0-.78,0H5.65a1.66,1.66,0,0,1-1.8-1.8c0-1.18,0-2.36,0-3.53V6.05c0-1.67.54-2.2,2.2-2.2H74.63c.29,0,.58,0,.86,0A1.56,1.56,0,0,1,77.12,5.5C77.16,8.84,77.16,12.16,77.12,15.5Z"/><path class="cls-3" d="M13.46,27.59A9.91,9.91,0,0,0,2,32,24.77,24.77,0,0,0,.5,35.81v2.82c.05.16.13.32.17.49A10.09,10.09,0,0,0,12.33,47a10,10,0,0,0,1.13-19.43Zm-3,16.21a6.65,6.65,0,1,1,6.64-6.64A6.63,6.63,0,0,1,10.5,43.8Z"/><path class="cls-4" d="M20.49,55.51a1.69,1.69,0,0,1-1.69,1.68c-.19,0-.37,0-.55,0-5.18,0-10.36,0-15.54,0A2.13,2.13,0,0,1,.5,56V54.88A2.57,2.57,0,0,1,3,53.79c5,0,10.1,0,15.14,0,.24,0,.47,0,.71,0A1.67,1.67,0,0,1,20.49,55.51Z"/><path class="cls-5" d="M20.49,65.51a1.69,1.69,0,0,1-1.69,1.68h-.55c-5.18,0-10.36,0-15.54,0A2.12,2.12,0,0,1,.5,66V64.87A2.61,2.61,0,0,1,3,63.78c5,0,10.1,0,15.14,0,.24,0,.47,0,.71,0A1.68,1.68,0,0,1,20.49,65.51Z"/><path class="cls-6" d="M20.49,75.51a1.69,1.69,0,0,1-1.69,1.68c-.19,0-.37,0-.55,0-5.18,0-10.36,0-15.54,0A2.15,2.15,0,0,1,.5,76v-1.1A2.59,2.59,0,0,1,3,73.79c5,0,10.1,0,15.14,0h.71A1.69,1.69,0,0,1,20.49,75.51Z"/><path class="cls-7" d="M74.87,30.49h-42c-1.82,0-2.34.54-2.34,2.39V74.75c0,1.91.48,2.4,2.4,2.4H74.85c1.79,0,2.3-.51,2.3-2.26V32.78C77.15,31,76.62,30.49,74.87,30.49ZM66,53.79,46.48,63.55a1.71,1.71,0,0,1-2.68-1.63q0-9.77,0-19.52a1.74,1.74,0,0,1,1.93-1.89,5.61,5.61,0,0,1,.74.27L66,50.52a1.72,1.72,0,0,1,0,3.27Z"/><path class="cls-8" d="M40.5,3.85H74.63c.29,0,.58,0,.86,0A1.55,1.55,0,0,1,77.12,5.5q.06,5,0,10a1.56,1.56,0,0,1-1.63,1.64c-.25,0-.52,0-.78,0H6.28c-.21,0-.42,0-.63,0a1.65,1.65,0,0,1-1.8-1.81c0-1.17,0-2.34,0-3.51,0-1.93,0-3.86,0-5.78,0-1.67.53-2.2,2.19-2.2Q23.28,3.84,40.5,3.85Z"/><path class="cls-9" d="M17.14,37.16A6.64,6.64,0,1,1,10.5,30.5,6.62,6.62,0,0,1,17.14,37.16Z"/><path class="cls-10" d="M66,50.52,46.47,40.78a5.61,5.61,0,0,0-.74-.27A1.74,1.74,0,0,0,43.8,42.4q0,9.76,0,19.52a1.71,1.71,0,0,0,2.68,1.63L66,53.79a1.72,1.72,0,0,0,0-3.27Zm-18.74,8.9V44.91l14.5,7.26Z"/><path class="cls-11" d="M61.74,52.17l-14.5,7.25V44.91Z"/></g></g></svg>