<svg xmlns="http://www.w3.org/2000/svg" xmlns:xlink="http://www.w3.org/1999/xlink" viewBox="0 0 91.17 88.21"><defs><style>.cls-1,.cls-2,.cls-3,.cls-4,.cls-5,.cls-6,.cls-7{stroke-miterlimit:10;}.cls-1,.cls-5{opacity:0.15;}.cls-1{fill:url(#linear-gradient);stroke:url(#linear-gradient-2);}.cls-2{fill:url(#linear-gradient-3);stroke:url(#linear-gradient-4);}.cls-3{fill:url(#linear-gradient-5);stroke:url(#linear-gradient-6);}.cls-4{fill:url(#linear-gradient-7);stroke:url(#linear-gradient-8);}.cls-5{fill:url(#linear-gradient-9);stroke:url(#linear-gradient-10);}.cls-6{fill:url(#linear-gradient-11);stroke:url(#linear-gradient-12);}.cls-7{fill:url(#linear-gradient-13);stroke:url(#linear-gradient-14);}</style><linearGradient id="linear-gradient" x1="2.17" y1="30.12" x2="88.98" y2="30.12" gradientUnits="userSpaceOnUse"><stop offset="0.26" stop-color="#bdd7f0"/><stop offset="1" stop-color="#7da6d8"/></linearGradient><linearGradient id="linear-gradient-2" x1="1.67" y1="30.12" x2="89.48" y2="30.12" xlink:href="#linear-gradient"/><linearGradient id="linear-gradient-3" x1="48.6" y1="50.08" x2="90.67" y2="50.08" xlink:href="#linear-gradient"/><linearGradient id="linear-gradient-4" x1="48.1" y1="50.08" x2="91.17" y2="50.08" xlink:href="#linear-gradient"/><linearGradient id="linear-gradient-5" x1="0.5" y1="27.54" x2="90.67" y2="27.54" xlink:href="#linear-gradient"/><linearGradient id="linear-gradient-6" x1="0" y1="27.54" x2="91.17" y2="27.54" xlink:href="#linear-gradient"/><linearGradient id="linear-gradient-7" x1="0.51" y1="72.65" x2="45.58" y2="72.65" xlink:href="#linear-gradient"/><linearGradient id="linear-gradient-8" x1="0.01" y1="72.65" x2="46.08" y2="72.65" xlink:href="#linear-gradient"/><linearGradient id="linear-gradient-9" x1="51.59" y1="50.08" x2="87.66" y2="50.08" xlink:href="#linear-gradient"/><linearGradient id="linear-gradient-10" x1="51.09" y1="50.08" x2="88.16" y2="50.08" xlink:href="#linear-gradient"/><linearGradient id="linear-gradient-11" x1="60.62" y1="20.03" x2="78.64" y2="20.03" xlink:href="#linear-gradient"/><linearGradient id="linear-gradient-12" x1="60.12" y1="20.03" x2="79.14" y2="20.03" xlink:href="#linear-gradient"/><linearGradient id="linear-gradient-13" x1="66.63" y1="80.15" x2="72.63" y2="80.15" xlink:href="#linear-gradient"/><linearGradient id="linear-gradient-14" x1="66.13" y1="80.15" x2="73.13" y2="80.15" xlink:href="#linear-gradient"/></defs><title>ddd</title><g id="Layer_2" data-name="Layer 2"><g id="Layer_1-2" data-name="Layer 1"><path class="cls-1" d="M2.17,4.82V58.59h47.5V18.53s.5-4.37,7.83-4.54c8.5-.17,26.67.17,26.67.17s4.5,1.85,4.66,5.5c.34,4.5,0-14.84,0-14.84S88.5,1.66,84.5,1.66H4.33A3.81,3.81,0,0,0,2.17,4.82Z"/><path class="cls-2" d="M82.87,12.52H56.48A7.46,7.46,0,0,0,48.6,20.4V79.76a7.48,7.48,0,0,0,7.88,7.89h26.3a7.48,7.48,0,0,0,7.89-7.89V20.31A7.46,7.46,0,0,0,82.87,12.52Zm4.79,66.93c0,3.42-1.79,5.19-5.22,5.2H56.71c-3.28,0-5.12-1.81-5.12-5.09v-59c0-3.22,1.85-5.05,5.08-5.05H82.59c3.23,0,5.07,1.83,5.07,5.06Z"/><path class="cls-3" d="M90.67,5.39c0,1.31,0,2.62,0,3.94,0,1.05-.57,1.67-1.48,1.67a1.47,1.47,0,0,1-1.52-1.64c0-1.28,0-2.56,0-3.85,0-1.49-.54-2-2-2H5.78C4,3.5,3.51,3.94,3.51,5.76q0,23.34,0,46.67a7.35,7.35,0,0,1,0,.94,1.47,1.47,0,0,1-1.55,1.21A1.41,1.41,0,0,1,.53,53.32a4.69,4.69,0,0,1,0-.84v-47C.51,2.29,2.31.5,5.47.5H85.76C88.85.5,90.66,2.31,90.67,5.39Z"/><path class="cls-4" d="M41.62,86.07c0,.05,0,.11,0,.16a1.75,1.75,0,0,1-.37,1c-.49.55-1.68.46-2.33.45-1.19,0-2.35,0-3.54.06-.5,0-1,0-1.5-.07a.66.66,0,0,1-.41-.12.65.65,0,0,1-.14-.49c0-.41,0-.83,0-1.24a1.34,1.34,0,0,1,.18-.83c.2-.27.78-.31,1.08-.34l1.11-.14c.26,0,.7,0,.84-.25s0-.82,0-1.18q0-1.76,0-3.51c0-.58.06-6.92.05-6.92H5.38A4.48,4.48,0,0,1,.51,67.79V59.54c0-1.45.47-1.94,1.89-1.94H43.7c1.23,0,1.86.51,1.88,1.47s-.64,1.53-1.91,1.53H3.52c0,2.58,0,5.08,0,7.57A1.45,1.45,0,0,0,5,69.61a7.35,7.35,0,0,0,.94,0H43.31c.25,0,.5,0,.74,0a1.47,1.47,0,0,1,1.53,1.54,1.45,1.45,0,0,1-1.52,1.45c-.74,0-1.5,0-2.25,0H39.57c0,3.51-.07,7-.09,10.5a2.7,2.7,0,0,0,.12,1c.24.61.94.61,1.48.75S41.68,85.54,41.62,86.07Z"/><path class="cls-5" d="M82.59,15.52H56.67c-3.23,0-5.08,1.83-5.08,5.05v59c0,3.28,1.84,5.09,5.12,5.09H82.44c3.43,0,5.22-1.78,5.22-5.2V20.58C87.66,17.35,85.82,15.52,82.59,15.52ZM71.31,81.61a29.32,29.32,0,0,1-3.38,0,1.41,1.41,0,0,1-1.3-1.46A1.47,1.47,0,0,1,68,78.64a1.08,1.08,0,0,1,.18,0h1.5c.54,0,1.08,0,1.6,0a1.43,1.43,0,0,1,1.34,1.52A1.34,1.34,0,0,1,71.31,81.61Zm5.55-60.08H62.39c-1.12,0-1.76-.55-1.77-1.48s.63-1.52,1.74-1.52c2.43,0,4.88,0,7.32,0s4.76,0,7.14,0c1.19,0,1.83.56,1.82,1.53S78,21.53,76.86,21.53Z"/><path class="cls-6" d="M69.68,18.53h7.14c1.19,0,1.84.56,1.82,1.53s-.65,1.47-1.79,1.47H62.39c-1.12,0-1.76-.55-1.77-1.48s.63-1.51,1.74-1.52Z"/><path class="cls-7" d="M69.69,78.64c.53,0,1.06,0,1.59,0a1.43,1.43,0,0,1,1.34,1.52,1.34,1.34,0,0,1-1.31,1.44,29.32,29.32,0,0,1-3.38,0,1.41,1.41,0,0,1-1.3-1.46A1.47,1.47,0,0,1,68,78.64h1.69Z"/></g></g></svg>