<svg xmlns="http://www.w3.org/2000/svg" xmlns:xlink="http://www.w3.org/1999/xlink" viewBox="0 0 80.96 81"><defs><style>.cls-1,.cls-2,.cls-3,.cls-4{opacity:0.15;}.cls-1{fill:url(#linear-gradient);stroke:url(#linear-gradient-2);}.cls-2{fill:url(#linear-gradient-3);stroke:url(#linear-gradient-4);}.cls-3{fill:url(#linear-gradient-5);stroke:url(#linear-gradient-6);}.cls-4{fill:url(#linear-gradient-7);stroke:url(#linear-gradient-8);}.cls-5{fill:url(#linear-gradient-9);stroke:url(#linear-gradient-10);}.cls-6{fill:url(#linear-gradient-11);stroke:url(#linear-gradient-12);}.cls-7{fill:url(#linear-gradient-13);stroke:url(#linear-gradient-14);}.cls-8{fill:url(#linear-gradient-15);stroke:url(#linear-gradient-16);}.cls-9{fill:url(#linear-gradient-17);stroke:url(#linear-gradient-18);}</style><linearGradient id="linear-gradient" x1="11.23" y1="18.54" x2="35.3" y2="18.54" gradientUnits="userSpaceOnUse"><stop offset="0.26" stop-color="#fedab6"/><stop offset="1" stop-color="#f79b8c"/></linearGradient><linearGradient id="linear-gradient-2" x1="10.73" y1="18.54" x2="35.8" y2="18.54" xlink:href="#linear-gradient"/><linearGradient id="linear-gradient-3" x1="41.74" y1="18.41" x2="70.06" y2="18.41" xlink:href="#linear-gradient"/><linearGradient id="linear-gradient-4" x1="41.19" y1="18.4" x2="70.68" y2="18.4" xlink:href="#linear-gradient"/><linearGradient id="linear-gradient-5" x1="11.23" y1="62.73" x2="35.36" y2="62.73" xlink:href="#linear-gradient"/><linearGradient id="linear-gradient-6" x1="10.73" y1="62.73" x2="35.86" y2="62.73" xlink:href="#linear-gradient"/><linearGradient id="linear-gradient-7" x1="43.53" y1="62.2" x2="69.29" y2="62.2" xlink:href="#linear-gradient"/><linearGradient id="linear-gradient-8" x1="42.99" y1="62.2" x2="69.79" y2="62.2" xlink:href="#linear-gradient"/><linearGradient id="linear-gradient-9" x1="41.76" y1="62.49" x2="71.18" y2="62.49" xlink:href="#linear-gradient"/><linearGradient id="linear-gradient-10" x1="41.26" y1="62.49" x2="71.68" y2="62.49" xlink:href="#linear-gradient"/><linearGradient id="linear-gradient-11" x1="9.78" y1="62.48" x2="36.63" y2="62.48" xlink:href="#linear-gradient"/><linearGradient id="linear-gradient-12" x1="9.28" y1="62.48" x2="37.13" y2="62.48" xlink:href="#linear-gradient"/><linearGradient id="linear-gradient-13" x1="0.5" y1="40.51" x2="80.46" y2="40.51" xlink:href="#linear-gradient"/><linearGradient id="linear-gradient-14" x1="0" y1="40.51" x2="80.96" y2="40.51" xlink:href="#linear-gradient"/><linearGradient id="linear-gradient-15" x1="40.47" y1="18.54" x2="71.16" y2="18.54" xlink:href="#linear-gradient"/><linearGradient id="linear-gradient-16" x1="39.97" y1="18.54" x2="71.66" y2="18.54" xlink:href="#linear-gradient"/><linearGradient id="linear-gradient-17" x1="9.8" y1="18.51" x2="36.52" y2="18.51" xlink:href="#linear-gradient"/><linearGradient id="linear-gradient-18" x1="9.3" y1="18.51" x2="37.02" y2="18.51" xlink:href="#linear-gradient"/></defs><title>Asset 10</title><g id="Layer_2" data-name="Layer 2"><g id="Layer_1-2" data-name="Layer 1"><path class="cls-1" d="M11.23,2.81V24.74s1.49,10.19,11.53,10.19A12.3,12.3,0,0,0,35.3,23.67l-.07-9.4L35.3,2.1H28.6V22.89a5.64,5.64,0,0,1-5.12,5.7c-2.21-.43-5.63-1.71-5.77-5.84-.14-3.13,0-20.15,0-20.15l-.64-.5H11.23Z"/><path class="cls-2" d="M41.76,3.24,52,18.19,41.76,33.72s-.27.94,1.09,1.25a30.37,30.37,0,0,0,4.77,0l7.83-10.73s.76,0,1,.43S64,35,64,35h5.55s1.35-.76-.36-3-9.68-13.43-9.68-13.43L70.06,3l-.94-1.21-5,.36L56.38,12.71l-1.07-.07L47.19,1.74l-4.91.36Z"/><path class="cls-3" d="M11.23,46.6V68.25s.5,10.26,12,10.9c1.57-.14,10.86-1.78,12-10.61.14-3.21,0-22.22,0-22.22H28.82v21s-1.42,5.55-5.66,5c-.47-.07-4.67-.14-5.45-5.41-.07-5,.07-20.65.07-20.65h-6.2Z"/><path class="cls-4" d="M43.56,46.82v4.7s-.36,1.14,1.28,1.07H52.1s1.71-.36,1.78,1.06c-.07,1.14,0,17.38,0,17.38A1.36,1.36,0,0,1,52,72.31c-4.84.14-8.43.5-8.43.5v5.77s25.45-.14,25.66,0,0-6.2,0-6.2h-10V53.09l10.07-.5V45.82l-25.76.5Z"/><path class="cls-5" d="M69.23,80.5H43.77a3.2,3.2,0,0,1-2-3.51c.06-1,0-1.92,0-2.88a2.74,2.74,0,0,1,3-3h7.67V53.9c-.28,0-.56,0-.83,0H45c-2.16,0-3.17-1-3.18-3.14,0-1.09,0-2.19,0-3.28a2.72,2.72,0,0,1,2.92-2.94q11.76,0,23.51,0a2.66,2.66,0,0,1,2.92,2.91q0,1.76,0,3.51a2.67,2.67,0,0,1-3,2.94c-2.27,0-4.53,0-6.8,0h-.9v2.5c0,.92-.54,1.5-1.34,1.49s-1.31-.57-1.32-1.5,0-1.62,0-2.42a2.64,2.64,0,0,1,2.75-2.76c2.32,0,4.63,0,6.95,0h.89V47.26H44.57v3.89h7.71A2.7,2.7,0,0,1,55.16,54V70.91a2.67,2.67,0,0,1-2.9,2.93c-2.26,0-4.53,0-6.79,0h-.9v3.93H68.39V73.85h-.83c-2.24,0-4.48,0-6.72,0a2.69,2.69,0,0,1-3-3c0-3,0-5.94,0-8.91a1.3,1.3,0,0,1,1.1-1.39,1.26,1.26,0,0,1,1.45.81,2.34,2.34,0,0,1,.1.84q0,4,0,8v.93h7.77A2.67,2.67,0,0,1,71.14,74c0,1-.06,2,0,3A3.22,3.22,0,0,1,69.23,80.5Z"/><path class="cls-6" d="M36,70.56c-1.52,5.48-5.29,8.72-10.9,9.79a3.23,3.23,0,0,0-.34.15H21.59A27.28,27.28,0,0,1,18,79.43c-5-2.24-7.86-6.12-8-11.56-.23-6.89-.08-13.8-.07-20.69a2.53,2.53,0,0,1,2.51-2.66,36.11,36.11,0,0,1,4.29,0,2.63,2.63,0,0,1,2.55,2.89c0,2,0,4,0,6,0,4.48,0,9,0,13.43a4,4,0,0,0,3,4.15,3.91,3.91,0,0,0,4.86-3.16,9.53,9.53,0,0,0,.08-1.41q0-9.4,0-18.81a3.1,3.1,0,0,1,.7-2.25,2.78,2.78,0,0,1,2.09-.89c1.25,0,2.5,0,3.75,0a2.65,2.65,0,0,1,2.82,2.78c0,1.67,0,3.33,0,5,0,1-.54,1.56-1.36,1.55s-1.34-.59-1.35-1.58c0-1.64,0-3.27,0-5H29.85v.87c0,6.3,0,12.59,0,18.89A6.69,6.69,0,0,1,25,73.6a6.77,6.77,0,0,1-8.48-6.75c0-6.19,0-12.39,0-18.58v-1h-4v.79q0,9.48,0,19a10.66,10.66,0,0,0,10.22,10.8,10.84,10.84,0,0,0,10.86-8.9,35.59,35.59,0,0,0,.18-4.74c0-2,0-4.06,0-6.09a1.41,1.41,0,0,1,1-1.55,1.29,1.29,0,0,1,1.59.89.4.4,0,0,1,0,.15C36.39,61.92,37.13,66.33,36,70.56Z"/><path class="cls-7" d="M79.62,41.74a3,3,0,0,1-1,.14H2.34A2,2,0,0,1,.5,41v-.93a1.94,1.94,0,0,1,1.84-.91H78.63c.33,0,.76,0,1,.15a2.54,2.54,0,0,1,.83,1.18A1.07,1.07,0,0,1,79.62,41.74Z"/><path class="cls-8" d="M70.47,32c1,1.38.9,3-.3,3.83a3.91,3.91,0,0,1-1.86.64c-1.06.1-2.13,0-3.2,0a3,3,0,0,1-2.54-1.41c-2.13-3-4.28-6-6.42-9-.09-.12-.19-.24-.35-.47l-5,7.08c-.58.83-1.19,1.65-1.75,2.49a2.92,2.92,0,0,1-2.58,1.35h-3a2.72,2.72,0,0,1-2.26-4.49c3.06-4.29,6.11-8.6,9.19-12.89a.9.9,0,0,0,0-1.28c-1.78-2.43-3.5-4.91-5.26-7.36a1.45,1.45,0,0,1-.23-1.6,1.32,1.32,0,0,1,2.35-.05c1.41,1.94,2.79,3.89,4.18,5.84.47.66.94,1.31,1.4,2a2.75,2.75,0,0,1,0,3.66L44,32.74l-.75,1.08c1.17,0,2.2,0,3.22,0,.21,0,.46-.28.61-.5q3.18-4.44,6.34-8.89c1.44-2,3.43-2,4.88,0,2.1,2.95,4.2,5.89,6.28,8.85a1.1,1.1,0,0,0,1.07.57c.88,0,1.75,0,2.8,0-.24-.35-.38-.58-.54-.8L59,20.5c-1.08-1.52-1.08-2.44,0-4l9-12.59c.14-.2.27-.42.48-.75-1.12,0-2.12,0-3.12,0-.26,0-.56.32-.73.57-2.1,2.92-4.17,5.85-6.25,8.78-1.51,2.12-3.48,2.12-5,0-2.09-2.95-4.19-5.89-6.27-8.85A1.12,1.12,0,0,0,46,3.18c-.87,0-1.74,0-2.79,0,.43.61.78,1.08,1.11,1.57a1.38,1.38,0,0,1-.19,2,1.35,1.35,0,0,1-2-.47c-.39-.52-.77-1-1.13-1.59a2.53,2.53,0,0,1-.13-2.8A2.53,2.53,0,0,1,43.2.53c1.07,0,2.13,0,3.2,0A2.92,2.92,0,0,1,49,1.88q3.1,4.39,6.24,8.78c.16.23.33.44.56.74l1.43-2c1.78-2.51,3.57-5,5.33-7.51A2.88,2.88,0,0,1,65.23.52c1,0,2.08,0,3.12,0A2.57,2.57,0,0,1,70.84,2a2.61,2.61,0,0,1-.25,2.87Q67.71,8.91,64.81,13c-1.18,1.65-2.34,3.31-3.55,4.94a.88.88,0,0,0,0,1.22Q65.9,25.58,70.47,32Z"/><path class="cls-9" d="M36.41,24.09a13.31,13.31,0,0,1-26.5.72,17.14,17.14,0,0,1-.08-2c0-6.35,0-12.7,0-19,0-2.09,1.27-3.38,3.26-3.22,1,.09,2.09,0,3.13,0a2.71,2.71,0,0,1,3,3c0,2.42,0,4.84,0,7.26,0,4.09,0,8.17,0,12.26a4,4,0,0,0,3.69,4.1,3.9,3.9,0,0,0,4.19-3.45,10.2,10.2,0,0,0,.06-1.24c0-6.25,0-12.49,0-18.74a4.84,4.84,0,0,1,.61-2.19,2.17,2.17,0,0,1,2-1c1.32,0,2.65,0,4,0A2.53,2.53,0,0,1,36.46,3c.1,1.84.06,3.69,0,5.53a1.32,1.32,0,0,1-1.34,1.35A1.39,1.39,0,0,1,33.8,8.43c0-1.43,0-2.86,0-4.29V3.22H29.85v.94c0,6.3,0,12.6,0,18.89a6.71,6.71,0,0,1-6.75,6.82,6.86,6.86,0,0,1-6.62-7c0-6.22,0-12.44,0-18.66v-1h-4v.84q0,9.38,0,18.75a10.62,10.62,0,0,0,9.3,10.93c5,.8,10.38-2.91,11.63-8.07A12.77,12.77,0,0,0,33.78,23c0-2.94,0-5.88,0-8.83,0-1,.51-1.64,1.36-1.63a1.23,1.23,0,0,1,1.29,1,1.83,1.83,0,0,1,.07.46C36.49,17.38,36.59,20.74,36.41,24.09Z"/></g></g></svg>